<svg width="111" height="31" viewBox="0 0 111 31" fill="none" xmlns="http://www.w3.org/2000/svg">
<path d="M29.1902 6.42188V24.4031H25.5212V6.42188H29.1902Z" fill="#001324"/>
<path d="M44.1315 12.2699V24.4239C44.1315 28.1908 41.1911 30.5009 37.6002 30.5009C34.1343 30.5009 31.5478 28.3417 31.298 25.3032L34.9409 25.3292C35.0918 26.6091 36.2211 27.1866 37.7303 27.1866C39.1355 27.1866 40.4677 26.4322 40.4677 24.4499V22.9203C39.5362 23.5238 38.334 23.8724 37.0018 23.8724C33.6607 23.8724 30.9753 21.1617 30.9753 18.0451C30.9753 14.4291 33.6607 11.9941 37.0018 11.9941C38.334 11.9941 39.5362 12.3479 40.4677 12.9463V12.2959L44.1315 12.2699ZM40.4677 19.4291V16.4634C39.7131 15.3812 38.6827 15.0066 37.6523 15.0066C35.8412 15.0066 34.6131 16.2137 34.6131 18.0451C34.6131 19.4031 35.8673 20.8599 37.6523 20.8599C38.6827 20.8859 39.7392 20.5061 40.4677 19.4291Z" fill="#001324"/>
<path d="M58.7499 18.1945C58.7499 21.9354 55.9865 24.5993 52.2707 24.5993C48.5289 24.5993 45.7655 21.9354 45.7655 18.1945C45.7655 14.4796 48.5289 11.7637 52.2707 11.7637C55.9917 11.7689 58.7499 14.4796 58.7499 18.1945ZM55.2111 18.1945C55.2111 16.4359 54.0557 15.0051 52.2707 15.0051C50.4597 15.0051 49.3043 16.4359 49.3043 18.1945C49.3043 19.9999 50.4597 21.3578 52.2707 21.3578C54.0557 21.337 55.2111 20.0051 55.2111 18.1945Z" fill="#001324"/>
<path d="M81.5076 12.2953V24.3712L77.9167 24.3973V23.7209C76.9852 24.3244 75.783 24.699 74.4507 24.699C71.1097 24.699 68.4243 21.8634 68.4243 18.3723C68.4243 14.8551 71.1097 12.0195 74.4507 12.0195C75.783 12.0195 76.9852 12.3941 77.9167 12.9977V12.3213L81.5076 12.2953ZM77.8907 20.2037V16.5148C77.1361 15.4326 76.0796 15.1361 75.0284 15.1361C73.1965 15.1361 71.9163 16.6189 71.9163 18.3775C71.9163 20.1101 73.1965 21.5929 75.0284 21.5929C76.0849 21.5877 77.1361 21.2859 77.8907 20.2037Z" fill="#001324"/>
<path d="M96.2771 17.8468V24.4025H92.7331V18.2734C92.7331 16.2911 91.7547 15.2609 89.9957 15.2609C89.0902 15.2609 88.0597 15.7864 87.2063 16.7906V24.3973H83.5894V12.3213H87.2063V13.2266C88.1846 12.4462 89.34 12.0195 90.6983 12.0195C93.9144 12.0195 96.2771 14.2776 96.2771 17.8468Z" fill="#001324"/>
<path d="M23.8403 24.3762H20.1245L17.6838 15.3595L12.4588 24.3762H8.29024L16.3515 10.4168L15.0452 5.54683L4.16854 24.3814H0L13.791 0.5H17.46L19.042 6.45213H22.8099L20.2494 10.9214L23.8403 24.3762Z" fill="#001324"/>
<path d="M110.87 6.42188V24.4031H107.201V23.7268C106.269 24.3303 105.067 24.7049 103.735 24.7049C100.394 24.7049 97.7083 21.8693 97.7083 18.3522C97.7083 14.861 100.394 12.0254 103.735 12.0254C105.067 12.0254 106.269 12.4 107.201 13.0036V6.42188H110.87ZM107.206 20.2044V16.4895C106.451 15.4073 105.374 15.1107 104.318 15.1107C102.46 15.1107 101.179 16.5936 101.179 18.3522C101.179 20.1368 102.46 21.6144 104.318 21.6144C105.369 21.6144 106.425 21.3126 107.206 20.2044Z" fill="#001324"/>
<path d="M67.7427 15.3591C66.9413 15.4579 65.0782 15.562 63.9749 17.0656V24.3965H60.358V12.3466H63.9749V13.2519C64.8024 12.5495 66.0358 12.1229 67.7427 12.2998V15.3591Z" fill="#001324"/>
</svg>
